<svg xmlns="http://www.w3.org/2000/svg" width="450" height="630" viewBox="0 0 450 630" fill="none">
  <defs>
    <linearGradient id="border" x1="0" y1="0" x2="1" y2="1">
      <stop offset="0" stop-color="#e7e0c9"/>
      <stop offset="1" stop-color="#f7f1df"/>
    </linearGradient>
    <linearGradient id="shine" x1="0" y1="0" x2="1" y2="0">
      <stop offset="0" stop-color="#ffffff" stop-opacity="0.85"/>
      <stop offset="1" stop-color="#ffffff" stop-opacity="0.45"/>
    </linearGradient>
  </defs>
  <rect x="8" y="8" width="434" height="614" rx="26" fill="url(#border)" stroke="#d0c6ae" stroke-width="8"/>
  <rect x="26" y="26" width="398" height="578" rx="20" fill="#fdfcf9" stroke="#e2dac2" stroke-width="4"/>
  <rect x="40" y="40" width="370" height="60" rx="16" fill="#fff7e6"/>
  <rect x="40" y="530" width="370" height="60" rx="16" fill="#fff7e6"/>
  <rect x="40" y="130" width="370" height="360" rx="28" fill="#ffffff" stroke="#f0e8d3" stroke-width="4"/>
  <path d="M60 60 h70 a14 14 0 0 1 14 14 v22 a14 14 0 0 1 -14 14 h-70 a14 14 0 0 1 -14 -14 v-22 a14 14 0 0 1 14 -14z" fill="#fff" stroke="#e2dac2" stroke-width="3"/>
  <path d="M390 60 h-70 a14 14 0 0 0 -14 14 v22 a14 14 0 0 0 14 14 h70 a14 14 0 0 0 14 -14 v-22 a14 14 0 0 0 -14 -14z" fill="#fff" stroke="#e2dac2" stroke-width="3"/>
  <path d="M60 570 h70 a14 14 0 0 0 14 -14 v-22 a14 14 0 0 0 -14 -14 h-70 a14 14 0 0 0 -14 14 v22 a14 14 0 0 0 14 14z" fill="#fff" stroke="#e2dac2" stroke-width="3"/>
  <path d="M390 570 h-70 a14 14 0 0 1 -14 -14 v-22 a14 14 0 0 1 14 -14 h70 a14 14 0 0 1 14 14 v22 a14 14 0 0 1 -14 14z" fill="#fff" stroke="#e2dac2" stroke-width="3"/>
  <path d="M90 210 C140 170 310 170 360 210 C330 260 330 370 360 420 C310 460 140 460 90 420 C120 370 120 260 90 210Z" fill="#fff8ed" stroke="#eedfbe" stroke-width="5"/>
  <path d="M140 240 C180 205 270 205 310 240 C285 280 285 350 310 390 C270 425 180 425 140 390 C165 350 165 280 140 240Z" fill="#f6edde"/>
  <path d="M160 260 Q225 215 290 260 Q270 310 270 335 T290 410 Q225 445 160 410 Q180 360 180 335 T160 260Z" fill="url(#shine)" opacity="0.6"/>
</svg>
